<svg width="27" height="24" viewBox="0 0 27 24" fill="none" xmlns="http://www.w3.org/2000/svg">
<path d="M13.7504 23.3858H5.76224C5.49881 23.3858 5.27412 23.2049 5.21214 22.9453L2.5236 11.643H24.9771L22.2886 22.9453C22.2266 23.2049 22.0019 23.3858 21.7385 23.3858H13.7504ZM13.7504 23.3858V11.643M8.00914 11.6115L9.489 23.3543M19.4761 11.6115L17.9962 23.3543M3.91823 17.5183H23.5825M5.09592 8.59912L9.04736 0.946228M22.3661 8.59912L18.4146 0.946228M25.5117 11.643H1.989C1.6016 11.643 1.28394 11.3205 1.28394 10.9272V9.32272C1.28394 8.92946 1.6016 8.60698 1.989 8.60698H25.5117C25.8991 8.60698 26.2168 8.92946 26.2168 9.32272V10.9272C26.2168 11.3205 25.8991 11.643 25.5117 11.643Z" stroke="black" stroke-width="0.831095" stroke-miterlimit="10" stroke-linecap="round" stroke-linejoin="round"/>
</svg>
