<svg width="23" height="23" viewBox="0 0 23 23" fill="none" xmlns="http://www.w3.org/2000/svg">
<path d="M13.3111 13.3245C11.8308 14.8047 10.2294 15.6929 9.39506 16.1101C9.05863 16.2716 8.65492 16.2043 8.38578 15.9351L6.74402 14.2934C6.11154 13.6609 5.10226 13.6609 4.46978 14.2934L1.30737 17.4827C0.674887 18.1152 0.674887 19.1244 1.30737 19.7569L2.86839 21.3179C7.34959 25.7991 16.6619 16.6618 16.6619 16.6618C16.6619 16.6618 25.7992 7.34952 21.318 2.86833L19.757 1.30731C19.1245 0.674826 18.1152 0.674826 17.4827 1.30731L14.3069 4.48317C13.6744 5.11565 13.6744 6.12493 14.3069 6.75741L15.9486 8.39918C16.2178 8.66832 16.2851 9.07203 16.1236 9.40845C15.693 10.2428 14.7913 11.8442 13.3111 13.3245Z" stroke="black" stroke-width="0.831095" stroke-miterlimit="10" stroke-linecap="round" stroke-linejoin="round"/>
</svg>
