<svg width="395" height="131" viewBox="0 0 395 131" fill="none" xmlns="http://www.w3.org/2000/svg">
<path d="M18.3894 63.6535C19.4768 63.871 20.5642 63.9798 21.6516 63.9798C26.4361 63.9798 28.8283 61.805 28.8283 57.4555C28.8283 55.6721 28.1976 54.2585 26.9363 53.2147C25.7184 52.1273 23.9568 51.5836 21.6516 51.5836C20.5642 51.5836 19.4768 51.6923 18.3894 51.9098V63.6535ZM18.3894 42.7758C19.9987 42.5583 21.5211 42.4496 22.9564 42.4496C28.6978 42.4496 33.1126 43.7762 36.2008 46.4294C39.3324 49.0826 40.8983 52.758 40.8983 57.4555C40.8983 63.1968 39.3107 67.3506 36.1355 69.9169C33.0038 72.4831 27.8497 73.7662 20.6729 73.7662C15.3665 73.7662 10.3645 73.44 5.66704 72.7876V25.4864H38.941V35.2728H18.3894V42.7758ZM62.6558 54.1933H71.2678L67.027 36.5777H66.8966L62.6558 54.1933ZM60.307 63.9798L58.154 73.1138H44.5835L60.2418 25.4864H73.9428L89.6011 73.1138H75.7696L73.5513 63.9798H60.307ZM132.944 47.0166H132.813L126.42 63.3273H114.676L108.282 47.0166H108.152V73.1138H95.8859V25.4864H109.456L120.482 53.5409H120.613L131.639 25.4864H145.471V73.1138H132.944V47.0166ZM155.012 25.4864H194.811V73.1138H181.762V35.9253H168.061V73.1138H155.012V25.4864ZM234.339 43.7544V53.5409H217.375V62.6749H235.643V73.1138H204.327V25.4864H235.643V35.9253H217.375V43.7544H234.339ZM257.253 58.2384V73.1138H244.53V25.8126C249.01 25.1602 253.795 24.834 258.884 24.834C273.672 24.834 281.066 30.1621 281.066 40.8185C281.066 46.6034 279.392 50.9964 276.043 53.9976C272.737 56.9553 267.887 58.4341 261.493 58.4341C259.797 58.4341 258.384 58.3689 257.253 58.2384ZM257.253 48.7781C258.079 48.9086 259.058 48.9739 260.189 48.9739C263.016 48.9739 265.191 48.3214 266.713 47.0166C268.235 45.7117 268.996 43.8632 268.996 41.4709C268.996 36.9039 266.06 34.6204 260.189 34.6204C259.232 34.6204 258.253 34.7291 257.253 34.9466V48.7781Z" fill="white"/>
<path d="M287.998 73.1138V59.4127H302.352V73.1138H287.998ZM333.195 45.0593H333.847C337.414 45.0593 340.306 46.2554 342.525 48.6476C344.787 50.9964 345.917 54.1498 345.917 58.1079C345.917 63.1968 344.352 67.0897 341.22 69.7864C338.088 72.4396 333.565 73.7662 327.649 73.7662C321.821 73.7662 316.384 72.4613 311.339 69.8516L314.536 60.0652C319.103 62.3269 323.039 63.4578 326.344 63.4578C328.563 63.4578 330.259 63.0229 331.433 62.1529C332.608 61.2395 333.195 59.9999 333.195 58.4341C333.195 57.1292 332.891 56.1506 332.282 55.4982C331.673 54.8457 330.52 54.3673 328.824 54.0628C327.171 53.7149 324.713 53.5409 321.451 53.5409H318.842V45.0593L329.933 36.0558V35.9253H312.317V25.4864H345.265V35.9253L333.195 44.9288V45.0593ZM368.763 42.7758H368.893C370.763 42.1233 372.568 41.7971 374.308 41.7971C379.354 41.7971 383.225 43.102 385.922 45.7117C388.618 48.2779 389.967 51.975 389.967 56.803C389.967 68.1118 383.007 73.7662 369.089 73.7662C364.087 73.7662 359.302 72.8963 354.735 71.1565L357.345 60.8481C361.782 62.5879 365.479 63.4578 368.436 63.4578C374.308 63.4578 377.244 61.2395 377.244 56.803C377.244 53.3234 375.396 51.5836 371.699 51.5836C370.307 51.5836 368.784 52.3448 367.132 53.8671H356.04L357.345 25.4864H387.683V35.9253H369.089L368.763 42.7758Z" fill="#FFD600"/>
<path d="M4.47713 120.605C5.46095 120.813 6.52244 120.916 7.66161 120.916C11.735 120.916 13.7717 119.242 13.7717 115.893C13.7717 112.838 11.6228 111.311 7.32504 111.311C6.34121 111.311 5.39191 111.397 4.47713 111.57V120.605ZM4.47713 110.482C5.42643 110.31 6.40162 110.224 7.40271 110.224C9.93993 110.224 11.8385 110.715 13.0985 111.699C14.3758 112.683 15.0144 114.081 15.0144 115.893C15.0144 119.984 12.5548 122.029 7.63572 122.029C6.08231 122.029 4.59795 121.883 3.18262 121.589V102.871H13.7976V103.984H4.47713V110.482ZM23.0603 108.049C24.8554 108.049 26.1326 108.437 26.8921 109.214C27.6515 109.973 28.0312 111.285 28.0312 113.149V118.146C28.0312 119.354 28.1607 120.562 28.4196 121.771H27.2286C27.0733 120.977 26.9784 120.088 26.9438 119.104H26.8921C26.426 120.001 25.7443 120.718 24.8468 121.253C23.9665 121.771 22.9568 122.029 21.8176 122.029C20.5404 122.029 19.522 121.684 18.7626 120.994C18.0031 120.286 17.6234 119.337 17.6234 118.146C17.6234 116.627 18.2879 115.445 19.617 114.599C20.9632 113.736 22.8705 113.304 25.3387 113.304H26.8144V113.175C26.8144 111.639 26.5382 110.577 25.9859 109.991C25.4509 109.386 24.4757 109.084 23.0603 109.084C21.3861 109.084 19.8759 109.481 18.5296 110.275L18.2189 109.291C19.6687 108.463 21.2826 108.049 23.0603 108.049ZM18.8144 118.094C18.8144 118.992 19.0992 119.708 19.6687 120.243C20.2556 120.778 21.0409 121.046 22.0247 121.046C23.3192 121.046 24.4411 120.571 25.3904 119.622C26.3397 118.655 26.8144 117.455 26.8144 116.023V114.288H25.3387C23.2502 114.288 21.6364 114.625 20.4972 115.298C19.3753 115.971 18.8144 116.903 18.8144 118.094ZM45.6387 109.861L40.15 117.473H38.9591L33.4704 109.861H33.4186V121.771H32.2018V108.308H33.7552L39.5286 116.515H39.5804L45.3539 108.308H46.9073V121.771H45.6905V109.861H45.6387ZM50.9367 108.308H61.9399V121.771H60.7231V109.369H52.1535V121.771H50.9367V108.308ZM66.3168 114.444H75.6113C75.5768 112.7 75.1712 111.371 74.3945 110.457C73.6351 109.525 72.5563 109.058 71.1582 109.058C69.6739 109.058 68.5088 109.533 67.6631 110.482C66.8173 111.414 66.3686 112.735 66.3168 114.444ZM66.2909 115.479C66.3082 117.205 66.7828 118.56 67.7149 119.544C68.6642 120.528 69.9241 121.02 71.4948 121.02C72.9274 121.02 74.2823 120.657 75.5595 119.932L75.9479 120.89C74.5498 121.65 73.0396 122.029 71.4171 122.029C69.484 122.029 67.9392 121.408 66.7828 120.165C65.6436 118.905 65.0741 117.197 65.0741 115.039C65.0741 112.864 65.6178 111.156 66.7051 109.913C67.7925 108.67 69.2769 108.049 71.1582 108.049C72.9533 108.049 74.3427 108.644 75.3265 109.835C76.3104 111.026 76.8023 112.718 76.8023 114.91V115.479H66.2909ZM85.9401 122.029C83.748 122.029 82.2119 121.097 81.3316 119.233H81.2798V127.466H80.063V108.308H81.2281L81.2539 110.923H81.3057C82.186 109.007 83.7308 108.049 85.9401 108.049C87.6315 108.049 88.9606 108.661 89.9271 109.887C90.8937 111.112 91.377 112.83 91.377 115.039C91.377 117.231 90.8851 118.948 89.9012 120.191C88.9174 121.417 87.597 122.029 85.9401 122.029ZM88.9692 119.44C89.7804 118.388 90.186 116.92 90.186 115.039C90.186 113.158 89.7804 111.699 88.9692 110.664C88.1752 109.611 87.0878 109.084 85.707 109.084C84.378 109.084 83.3079 109.602 82.4967 110.638C81.6854 111.656 81.2798 113.054 81.2798 114.832V115.246C81.2798 117.059 81.6941 118.474 82.5226 119.492C83.351 120.493 84.4125 120.994 85.707 120.994C87.0878 120.994 88.1752 120.476 88.9692 119.44ZM99.4411 108.049C101.236 108.049 102.513 108.437 103.273 109.214C104.032 109.973 104.412 111.285 104.412 113.149V118.146C104.412 119.354 104.541 120.562 104.8 121.771H103.609C103.454 120.977 103.359 120.088 103.325 119.104H103.273C102.807 120.001 102.125 120.718 101.228 121.253C100.347 121.771 99.3376 122.029 98.1984 122.029C96.9211 122.029 95.9028 121.684 95.1434 120.994C94.3839 120.286 94.0042 119.337 94.0042 118.146C94.0042 116.627 94.6687 115.445 95.9977 114.599C97.344 113.736 99.2513 113.304 101.719 113.304H103.195V113.175C103.195 111.639 102.919 110.577 102.367 109.991C101.832 109.386 100.856 109.084 99.4411 109.084C97.7669 109.084 96.2566 109.481 94.9104 110.275L94.5997 109.291C96.0495 108.463 97.6633 108.049 99.4411 108.049ZM95.1951 118.094C95.1951 118.992 95.4799 119.708 96.0495 120.243C96.6364 120.778 97.4217 121.046 98.4055 121.046C99.7 121.046 100.822 120.571 101.771 119.622C102.721 118.655 103.195 117.455 103.195 116.023V114.288H101.719C99.631 114.288 98.0172 114.625 96.878 115.298C95.7561 115.971 95.1951 116.903 95.1951 118.094ZM117.157 120.813C118.02 120.951 118.866 121.02 119.695 121.02C122.991 121.02 124.64 119.958 124.64 117.835C124.64 115.902 122.87 114.936 119.332 114.936H117.157V120.813ZM117.157 114.003H119.332C120.765 114.003 121.878 113.779 122.672 113.33C123.466 112.864 123.863 112.226 123.863 111.414C123.863 109.844 122.413 109.058 119.513 109.058C118.737 109.058 117.951 109.128 117.157 109.266V114.003ZM125.856 117.887C125.856 119.061 125.39 120.036 124.458 120.813C123.526 121.572 121.921 121.952 119.643 121.952C118.297 121.952 117.054 121.848 115.915 121.641V108.437C117.002 108.23 118.176 108.126 119.436 108.126C121.49 108.126 122.94 108.428 123.785 109.033C124.631 109.637 125.054 110.396 125.054 111.311C125.054 112.899 124.053 113.926 122.051 114.392V114.418C124.588 114.832 125.856 115.988 125.856 117.887ZM147.448 120.709H149.597V124.877H148.484V121.771H136.445V108.308H137.662V120.709H146.231V108.308H147.448V120.709ZM153.843 120.813C154.706 120.951 155.552 121.02 156.381 121.02C159.677 121.02 161.326 119.958 161.326 117.835C161.326 115.902 159.557 114.936 156.018 114.936H153.843V120.813ZM153.843 114.003H156.018C157.451 114.003 158.564 113.779 159.358 113.33C160.152 112.864 160.549 112.226 160.549 111.414C160.549 109.844 159.099 109.058 156.199 109.058C155.423 109.058 154.637 109.128 153.843 109.266V114.003ZM162.543 117.887C162.543 119.061 162.076 120.036 161.144 120.813C160.212 121.572 158.607 121.952 156.329 121.952C154.983 121.952 153.74 121.848 152.601 121.641V108.437C153.688 108.23 154.862 108.126 156.122 108.126C158.176 108.126 159.626 108.428 160.471 109.033C161.317 109.637 161.74 110.396 161.74 111.311C161.74 112.899 160.739 113.926 158.737 114.392V114.418C161.274 114.832 162.543 115.988 162.543 117.887ZM166.135 114.444H175.43C175.395 112.7 174.99 111.371 174.213 110.457C173.453 109.525 172.375 109.058 170.977 109.058C169.492 109.058 168.327 109.533 167.481 110.482C166.636 111.414 166.187 112.735 166.135 114.444ZM166.109 115.479C166.127 117.205 166.601 118.56 167.533 119.544C168.483 120.528 169.743 121.02 171.313 121.02C172.746 121.02 174.101 120.657 175.378 119.932L175.766 120.89C174.368 121.65 172.858 122.029 171.236 122.029C169.302 122.029 167.758 121.408 166.601 120.165C165.462 118.905 164.892 117.197 164.892 115.039C164.892 112.864 165.436 111.156 166.524 109.913C167.611 108.67 169.095 108.049 170.977 108.049C172.772 108.049 174.161 108.644 175.145 109.835C176.129 111.026 176.621 112.718 176.621 114.91V115.479H166.109ZM190.703 109.343H185.551V121.771H184.257V109.343H179.105V108.308H190.703V109.343ZM202.591 114.159L210.021 108.308H211.704L203.445 114.754L211.911 121.771H210.254L202.591 115.376H202.565V121.771H201.296V108.308H202.565V114.159H202.591ZM225.3 108.308H226.62L221.235 121.745C220.338 124.023 219.38 125.585 218.361 126.431C217.343 127.294 215.997 127.725 214.322 127.725L214.271 126.664C215.651 126.664 216.756 126.319 217.585 125.628C218.43 124.938 219.233 123.652 219.992 121.771L214.348 108.308H215.695L220.588 120.295H220.64L225.3 108.308ZM233.627 109.058C232.142 109.058 230.71 109.352 229.329 109.939L228.992 109.007C230.58 108.368 232.151 108.049 233.704 108.049C235.499 108.049 236.906 108.351 237.924 108.955C238.943 109.542 239.452 110.336 239.452 111.337C239.452 112.027 239.158 112.657 238.572 113.227C237.985 113.796 237.104 114.202 235.931 114.444V114.495C237.26 114.754 238.218 115.229 238.805 115.919C239.391 116.592 239.685 117.335 239.685 118.146C239.685 119.354 239.167 120.303 238.131 120.994C237.096 121.684 235.62 122.029 233.704 122.029C232.047 122.029 230.425 121.719 228.837 121.097L229.173 120.114C230.727 120.7 232.22 120.994 233.652 120.994C235.206 120.994 236.388 120.744 237.199 120.243C238.028 119.725 238.442 118.992 238.442 118.042C238.442 116.006 236.431 114.987 232.41 114.987H231.193V113.978H232.41C234.274 113.978 235.698 113.762 236.682 113.33C237.683 112.882 238.183 112.26 238.183 111.466C238.183 110.724 237.786 110.137 236.992 109.706C236.216 109.274 235.094 109.058 233.627 109.058ZM251.896 110.69C250.998 109.619 249.781 109.084 248.245 109.084C246.709 109.084 245.492 109.619 244.595 110.69C243.697 111.742 243.249 113.192 243.249 115.039C243.249 116.886 243.697 118.344 244.595 119.415C245.492 120.467 246.709 120.994 248.245 120.994C249.781 120.994 250.998 120.467 251.896 119.415C252.793 118.344 253.242 116.886 253.242 115.039C253.242 113.192 252.793 111.742 251.896 110.69ZM252.776 120.139C251.654 121.399 250.144 122.029 248.245 122.029C246.347 122.029 244.836 121.399 243.715 120.139C242.593 118.879 242.032 117.179 242.032 115.039C242.032 112.899 242.593 111.199 243.715 109.939C244.836 108.679 246.347 108.049 248.245 108.049C250.144 108.049 251.654 108.679 252.776 109.939C253.898 111.199 254.459 112.899 254.459 115.039C254.459 117.179 253.898 118.879 252.776 120.139ZM258.845 120.813C259.708 120.951 260.554 121.02 261.382 121.02C264.679 121.02 266.327 119.958 266.327 117.835C266.327 115.902 264.558 114.936 261.02 114.936H258.845V120.813ZM258.845 114.003H261.02C262.452 114.003 263.566 113.779 264.359 113.33C265.153 112.864 265.55 112.226 265.55 111.414C265.55 109.844 264.101 109.058 261.201 109.058C260.424 109.058 259.639 109.128 258.845 109.266V114.003ZM267.544 117.887C267.544 119.061 267.078 120.036 266.146 120.813C265.214 121.572 263.609 121.952 261.33 121.952C259.984 121.952 258.741 121.848 257.602 121.641V108.437C258.69 108.23 259.863 108.126 261.123 108.126C263.177 108.126 264.627 108.428 265.473 109.033C266.319 109.637 266.741 110.396 266.741 111.311C266.741 112.899 265.74 113.926 263.738 114.392V114.418C266.275 114.832 267.544 115.988 267.544 117.887ZM275.59 108.049C277.385 108.049 278.662 108.437 279.421 109.214C280.181 109.973 280.561 111.285 280.561 113.149V118.146C280.561 119.354 280.69 120.562 280.949 121.771H279.758C279.603 120.977 279.508 120.088 279.473 119.104H279.421C278.955 120.001 278.274 120.718 277.376 121.253C276.496 121.771 275.486 122.029 274.347 122.029C273.07 122.029 272.051 121.684 271.292 120.994C270.533 120.286 270.153 119.337 270.153 118.146C270.153 116.627 270.817 115.445 272.146 114.599C273.493 113.736 275.4 113.304 277.868 113.304H279.344V113.175C279.344 111.639 279.068 110.577 278.515 109.991C277.98 109.386 277.005 109.084 275.59 109.084C273.915 109.084 272.405 109.481 271.059 110.275L270.748 109.291C272.198 108.463 273.812 108.049 275.59 108.049ZM271.344 118.094C271.344 118.992 271.629 119.708 272.198 120.243C272.785 120.778 273.57 121.046 274.554 121.046C275.849 121.046 276.971 120.571 277.92 119.622C278.869 118.655 279.344 117.455 279.344 116.023V114.288H277.868C275.78 114.288 274.166 114.625 273.027 115.298C271.905 115.971 271.344 116.903 271.344 118.094ZM293.953 120.735H302.031V109.343H295.558C295.558 113.831 295.489 116.592 295.351 117.628C295.213 118.646 294.747 119.682 293.953 120.735ZM292.503 120.735C293.418 119.578 293.953 118.526 294.109 117.576C294.264 116.627 294.342 113.883 294.342 109.343V108.308H303.248V120.735H305.06V124.877H303.843V121.771H292.374V124.877H291.157V120.735H292.503ZM310.472 115.117V108.308H319.896V121.771H318.705V109.369H311.663V115.272C311.663 117.05 311.508 118.413 311.197 119.363C310.904 120.295 310.421 120.959 309.747 121.356C309.074 121.736 308.099 121.96 306.822 122.029L306.77 120.968C307.53 120.933 308.116 120.847 308.531 120.709C308.945 120.571 309.307 120.295 309.618 119.881C309.946 119.466 310.17 118.888 310.291 118.146C310.412 117.386 310.472 116.377 310.472 115.117ZM327.156 115.246C326.103 115.056 325.223 114.685 324.515 114.133C323.825 113.581 323.479 112.804 323.479 111.803C323.479 109.352 325.473 108.126 329.46 108.126C330.772 108.126 332.049 108.221 333.292 108.411V121.771H332.049V115.635H329.9C328.813 115.635 328.062 115.773 327.648 116.049C327.234 116.308 326.742 116.989 326.172 118.094L324.334 121.771H323.039L325.007 117.939C325.473 117.041 325.853 116.411 326.146 116.049C326.457 115.669 326.793 115.41 327.156 115.272V115.246ZM332.049 114.651V109.291C331.221 109.188 330.366 109.136 329.486 109.136C328.588 109.136 327.82 109.214 327.182 109.369C326.543 109.525 326.068 109.697 325.758 109.887C325.447 110.077 325.205 110.318 325.033 110.612C324.86 110.905 324.757 111.138 324.722 111.311C324.705 111.484 324.696 111.682 324.696 111.906C324.696 113.736 326.414 114.651 329.848 114.651H332.049ZM356.743 116.334C356.743 118.008 356.174 119.38 355.034 120.45C353.913 121.503 352.031 122.029 349.39 122.029C347.733 122.029 346.24 121.891 344.911 121.615V103.026C346.292 102.75 347.699 102.612 349.131 102.612C353.567 102.612 355.785 104.105 355.785 107.091C355.785 108.178 355.44 109.102 354.75 109.861C354.059 110.603 353.101 111.121 351.876 111.414V111.466C353.464 111.725 354.672 112.269 355.5 113.097C356.329 113.926 356.743 115.005 356.743 116.334ZM355.449 116.256C355.449 114.841 354.896 113.788 353.792 113.097C352.687 112.407 350.961 112.062 348.614 112.062H346.206V120.631C347.259 120.821 348.32 120.916 349.39 120.916C353.429 120.916 355.449 119.363 355.449 116.256ZM346.206 110.974H348.614C350.564 110.974 352.04 110.655 353.041 110.016C354.042 109.361 354.542 108.428 354.542 107.22C354.542 104.89 352.739 103.725 349.131 103.725C348.165 103.725 347.19 103.82 346.206 104.01V110.974ZM366.708 104.01H366.656L362.773 114.703H370.592L366.708 104.01ZM370.98 115.79H362.358L360.184 121.771H358.837L365.905 102.871H367.459L374.553 121.771H373.155L370.98 115.79ZM384.174 111.44V111.492C387.471 112.01 389.119 113.624 389.119 116.334C389.119 118.198 388.532 119.613 387.358 120.58C386.202 121.546 384.502 122.029 382.258 122.029C380.204 122.029 378.288 121.477 376.51 120.372L376.951 119.311C378.642 120.381 380.394 120.916 382.206 120.916C385.952 120.916 387.824 119.371 387.824 116.282C387.824 114.866 387.255 113.822 386.116 113.149C384.976 112.459 383.19 112.114 380.756 112.114H379.617V110.974H380.756C382.879 110.974 384.528 110.629 385.701 109.939C386.875 109.231 387.462 108.256 387.462 107.013C387.462 105.978 387.048 105.175 386.219 104.605C385.391 104.019 384.226 103.725 382.724 103.725C380.981 103.725 379.255 104.226 377.546 105.227L377.132 104.191C378.961 103.138 380.869 102.612 382.854 102.612C384.666 102.612 386.098 102.992 387.151 103.751C388.204 104.51 388.731 105.537 388.731 106.832C388.731 109.214 387.212 110.75 384.174 111.44Z" fill="white"/>
</svg>
