<svg width="135" height="143" viewBox="0 0 135 143" fill="none" xmlns="http://www.w3.org/2000/svg">
<path d="M26.3446 75.4692C26.8203 75.4692 27.298 75.3063 27.6874 74.9737C28.5533 74.234 28.6535 72.935 27.9112 72.0721C17.9 60.4327 13.0144 48.677 11.3519 44.0755L18.0156 42.4152C18.667 42.2528 19.1987 41.785 19.441 41.1608C19.683 40.5365 19.6057 39.8341 19.2331 39.2771C9.42479 24.6154 5.78043 11.0663 4.60501 5.47377C11.323 6.59793 29.6588 10.5274 51.8502 22.4354C52.8543 22.9743 54.1068 22.6 54.6473 21.5991C55.1881 20.5984 54.8122 19.3505 53.8081 18.8116C25.0827 3.39723 3.1884 1.07128 2.27042 0.979631C1.64651 0.917621 1.02562 1.14207 0.587011 1.59014C0.148123 2.03848 -0.0619595 2.66133 0.015961 3.28254C0.10462 3.99045 2.25087 20.1802 14.211 39.1207L8.18577 40.6219C7.64281 40.7571 7.17831 41.1062 6.8983 41.5891C6.61828 42.072 6.54724 42.6474 6.70088 43.1835C6.88618 43.83 11.3932 59.1914 24.7757 74.7504C25.1843 75.2256 25.7625 75.4692 26.3446 75.4692Z" fill="#FFD600"/>
<path d="M126.874 59.0874C122.955 50.7351 117.497 42.5954 110.653 34.8946C99.0291 21.8144 87.5653 14.611 87.083 14.3108C86.5339 13.9689 85.8577 13.9059 85.2554 14.1401C84.6533 14.3743 84.1951 14.879 84.018 15.5031L80.5997 27.5333C78.9039 25.8609 76.3633 23.5177 72.9659 20.8132C61.8628 11.9742 50.4089 6.29655 42.7558 3.08996C41.7055 2.65026 40.4994 3.14907 40.0619 4.2055C39.6243 5.26138 40.1209 6.47415 41.171 6.9144C54.544 12.5175 64.3946 19.2862 70.3033 23.9778C76.714 29.0681 79.9999 32.8817 80.0312 32.9182C80.5245 33.4971 81.2938 33.7561 82.0352 33.5937C82.7757 33.4311 83.3678 32.8721 83.576 32.139L87.2022 19.3773C91.0885 22.1122 99.3598 28.4033 107.581 37.6549C114.161 45.0582 119.398 52.864 123.148 60.8553C127.811 70.7916 130.176 81.0508 130.176 91.3478C130.176 117.063 109.37 137.984 83.7971 137.984C70.8716 137.984 58.1443 133.168 46.9915 124.057C35.8842 114.983 26.7738 101.947 20.5484 86.2542L29.1568 84.5231C30.2725 84.2988 30.9959 83.2076 30.7729 82.0857C30.5496 80.964 29.4641 80.236 28.349 80.4608L17.34 82.6748C16.7476 82.7941 16.237 83.1686 15.9436 83.6997C15.65 84.2308 15.603 84.8647 15.8154 85.4334C22.3038 102.832 32.1861 117.3 44.3937 127.273C56.2889 136.99 69.9144 142.127 83.7969 142.127C111.642 142.127 134.296 119.348 134.296 91.3478C134.296 80.4349 131.799 69.5808 126.874 59.0874Z" fill="#FFD600"/>
<path d="M79.1601 44.1225C79.6675 43.1051 79.2562 41.8681 78.2416 41.3596C77.507 40.9911 60.0175 32.3379 40.0074 32.3379C39.2754 32.3379 38.5985 32.7286 38.2311 33.3637C37.8636 33.9986 37.8608 34.7817 38.2242 35.419L45.5045 48.1948L33.1315 49.9672C32.465 50.0628 31.8878 50.4793 31.586 51.0829C31.2843 51.6861 31.2966 52.3995 31.6192 52.9921L44.8572 77.346C43.2315 81.8022 42.3437 86.612 42.3437 91.6257C42.3437 114.608 60.9896 133.305 83.9086 133.305C106.827 133.305 125.473 114.607 125.473 91.6257C125.473 68.6439 106.827 49.9464 83.9086 49.9464C67.8323 49.9464 53.8593 59.1466 46.9484 72.5712L36.6423 53.6247L49.078 51.8432C49.7513 51.7468 50.3335 51.322 50.6325 50.7094C50.9315 50.0966 50.9083 49.3752 50.5706 48.783L43.6025 36.5549C61.1369 37.5017 76.2452 44.9635 76.4056 45.044C77.4199 45.5517 78.6529 45.1398 79.1601 44.1225ZM83.9083 54.0654C104.562 54.0654 121.365 70.9149 121.365 91.6259C121.365 112.337 104.562 129.186 83.9083 129.186C63.2541 129.186 46.4509 112.337 46.4509 91.6259C46.4509 70.9152 63.2541 54.0654 83.9083 54.0654Z" fill="#FFD600"/>
<path d="M77.4404 91.6437C77.4404 95.1571 80.2989 98.0154 83.8121 98.0154C87.3253 98.0154 90.1838 95.1571 90.1838 91.6437C90.1838 88.1302 87.3253 85.272 83.8121 85.272C80.2989 85.272 77.4404 88.1302 77.4404 91.6437ZM86.1223 91.6437C86.1223 92.9176 85.0858 93.9538 83.8121 93.9538C82.5384 93.9538 81.5019 92.9173 81.5019 91.6437C81.5019 90.3697 82.5384 89.3335 83.8121 89.3335C85.0858 89.3335 86.1223 90.3697 86.1223 91.6437Z" fill="#FFD600"/>
<path d="M65.2037 113.057C65.5872 113.375 66.0519 113.53 66.5139 113.53C67.1052 113.53 67.6919 113.276 68.0987 112.785C68.8231 111.91 68.7011 110.614 67.8262 109.89C67.2763 109.435 66.7499 108.957 66.2469 108.461L73.3622 104.353C74.4176 103.744 75.3498 104.151 75.7012 104.353C76.053 104.556 76.8708 105.16 76.8708 106.379V114.575C76.195 114.387 75.523 114.17 74.8566 113.922C73.7926 113.526 72.6085 114.067 72.2124 115.131C71.8165 116.196 72.358 117.379 73.4225 117.776C76.6418 118.974 79.9725 119.581 83.3221 119.581C98.9972 119.581 111.75 106.828 111.75 91.1531C111.75 82.658 107.992 74.6742 101.44 69.2493C100.566 68.5252 99.27 68.6467 98.5454 69.5215C97.8211 70.396 97.9431 71.6922 98.8179 72.4165C99.3679 72.8719 99.8942 73.3492 100.397 73.8451L93.2823 77.953C92.2268 78.5624 91.2947 78.1559 90.9432 77.953C90.5917 77.7501 89.7737 77.1462 89.7737 75.9273V67.7313C90.4495 67.9199 91.1214 68.137 91.7879 68.3851C92.8521 68.781 94.0359 68.2396 94.432 67.1753C94.8279 66.111 94.2865 64.9273 93.2219 64.5311C90.0029 63.3331 86.6722 62.7258 83.3224 62.7258C67.6472 62.7258 54.8945 75.4785 54.8945 91.1536C54.8943 99.6485 58.6518 107.632 65.2037 113.057ZM59.0065 91.1534C59.0065 89.0345 59.2796 86.9783 59.7914 85.0173L66.9106 89.1274C67.9661 89.7368 68.0801 90.7471 68.0801 91.1531C68.0801 91.5591 67.9661 92.5694 66.9106 93.1788L59.7909 97.2894C59.2757 95.3084 59.0065 93.2493 59.0065 91.1534ZM89.7734 114.598V106.379C89.7734 105.16 90.5912 104.556 90.9429 104.353C91.2947 104.15 92.2265 103.744 93.282 104.353L100.388 108.456C97.4713 111.333 93.8336 113.48 89.7734 114.598ZM107.637 91.1534C107.637 93.2723 107.364 95.3284 106.852 97.2894L99.7333 93.1791C98.6775 92.5696 98.5638 91.5594 98.5638 91.1531C98.5638 90.7471 98.6778 89.7368 99.7333 89.1274L106.853 85.0168C107.368 86.9983 107.637 89.0575 107.637 91.1534ZM85.6611 66.9579V75.9278C85.6611 78.26 86.8668 80.3488 88.8868 81.515C89.8968 82.0982 91.0046 82.3896 92.1125 82.3896C93.2203 82.3896 94.3284 82.0982 95.3381 81.515L103.113 77.0264C104.025 78.3012 104.808 79.6574 105.455 81.0764L97.6774 85.5664C95.6575 86.7324 94.4518 88.8212 94.4518 91.1534C94.4518 93.4856 95.6575 95.5743 97.6774 96.7406L105.45 101.228C104.797 102.657 104.01 104.011 103.105 105.276L95.3384 100.792C93.3184 99.6257 90.9067 99.6257 88.8871 100.792C86.8674 101.958 85.6614 104.047 85.6614 106.379V115.356C84.8913 115.43 84.1114 115.469 83.3224 115.469C82.5413 115.469 81.7611 115.426 80.9833 115.349V106.379C80.9833 104.047 79.7776 101.958 77.7576 100.792C75.7377 99.6257 73.326 99.6255 71.3063 100.792L63.5317 105.28C62.6198 104.006 61.8363 102.65 61.1899 101.23L68.9673 96.7403C70.9872 95.5741 72.1929 93.4856 72.1929 91.1531C72.1929 88.8209 70.9872 86.7321 68.9673 85.5662L61.1945 81.0786C61.8476 79.65 62.6346 78.2954 63.5402 77.0308L71.3066 81.5145C72.3166 82.0976 73.4244 82.389 74.5322 82.389C75.6401 82.389 76.7482 82.0973 77.7579 81.5145C79.7779 80.3483 80.9836 78.2598 80.9836 75.9273V66.9505C81.7537 66.8768 82.5336 66.8375 83.3226 66.8375C84.1031 66.8381 84.8834 66.8806 85.6611 66.9579ZM66.2562 73.8509C69.1729 70.9737 72.8106 68.8268 76.8708 67.7083V75.9276C76.8708 77.1464 76.053 77.7504 75.7012 77.9533C75.3495 78.1561 74.4174 78.5624 73.3622 77.9533L66.2562 73.8509Z" fill="#FFD600"/>
</svg>
