<svg width="136" height="124" viewBox="0 0 136 124" fill="none" xmlns="http://www.w3.org/2000/svg">
<path d="M125.166 48.831C128.495 47.2672 129.889 44.7933 130.309 42.723C132.985 42.2009 135.012 39.8408 135.012 37.0145C135.012 33.8062 132.402 31.1959 129.193 31.1959H127.424C124.216 31.1959 121.606 33.8059 121.606 37.0145C121.606 39.7037 123.442 41.9665 125.925 42.6297C125.895 42.7001 125.863 42.7702 125.827 42.8417C125.315 43.8535 124.341 44.6456 122.927 45.2086C122.199 44.1166 121.606 43.3097 121.23 42.8166C121.077 40.2611 120.308 31.2412 116.76 22.0886C111.16 7.63818 101.344 0 88.3762 0H58.4199C57.2547 0 56.3099 0.944554 56.3099 2.11008C56.3099 3.27561 57.2547 4.22017 58.4199 4.22017H88.3764C99.5843 4.22017 107.799 10.7147 112.79 23.5229C115.584 30.6904 116.561 37.9601 116.889 41.4815H18.1221C18.4507 37.9596 19.4282 30.6898 22.2213 23.5229C27.213 10.7147 35.4274 4.22017 46.6352 4.22017H49.9793C51.1446 4.22017 52.0894 3.27561 52.0894 2.11008C52.0894 0.944554 51.1446 0 49.9793 0H46.6352C33.6669 0 23.8517 7.63791 18.2511 22.0886C14.7039 31.2412 13.9344 40.2609 13.7815 42.8166C13.4049 43.3097 12.8127 44.1166 12.0843 45.2086C10.6707 44.6456 9.69658 43.8532 9.18422 42.8417C9.14809 42.7702 9.11618 42.6995 9.08612 42.6297C11.5691 41.9659 13.4057 39.7037 13.4057 37.0145C13.4057 33.8062 10.7957 31.1959 7.58728 31.1959H5.81842C2.61005 31.1964 0 33.8064 0 37.0148C0 39.8413 2.02676 42.2009 4.70273 42.7233C5.12306 44.7935 6.51668 47.2673 9.84635 48.8312C8.98012 50.3406 8.05455 52.0902 7.13557 54.0574C7.12872 54.0708 7.12292 54.0848 7.11632 54.0985C6.9407 54.4748 6.76535 54.8561 6.59105 55.2482C3.29961 62.6422 -0.327772 74.3352 1.0437 88.0932V112.189C1.0437 118.201 5.93497 123.092 11.9469 123.092C17.9589 123.092 22.8502 118.201 22.8502 112.189V103.154H49.7001V106.354C49.7001 107.52 50.6449 108.464 51.8102 108.464H83.2017C84.367 108.464 85.3118 107.52 85.3118 106.354V103.155H112.162V112.189C112.162 118.201 117.053 123.092 123.065 123.092C129.077 123.092 133.968 118.201 133.968 112.189V88.0935C135.34 74.3355 131.712 62.6425 128.421 55.248C127.326 52.789 126.203 50.6394 125.166 48.831ZM125.826 37.0148C125.826 36.1335 126.543 35.4165 127.424 35.4165H129.193C130.074 35.4165 130.791 36.1338 130.791 37.0148C130.791 37.8961 130.074 38.6128 129.193 38.6128H127.424C126.543 38.6128 125.826 37.8961 125.826 37.0148ZM7.58755 38.6128H5.81842C4.93715 38.6128 4.22043 37.8958 4.22043 37.0148C4.22043 36.1335 4.93742 35.4165 5.81842 35.4165H7.58755C8.46881 35.4165 9.18554 36.1338 9.18554 37.0148C9.18554 37.8958 8.46855 38.6128 7.58755 38.6128ZM16.8949 45.703H118.116C119.094 47.027 121.159 50.0178 123.301 54.3184C122.111 55.1309 120.867 55.8647 119.582 56.5158C117.986 55.4616 116.076 54.8453 114.024 54.8453C110.211 54.8453 106.886 56.9662 105.162 60.0891C104.974 60.0923 104.787 60.0968 104.599 60.0968H30.4124C30.2252 60.0968 30.0374 60.0923 29.8494 60.0891C28.1259 56.9662 24.8005 54.8453 20.9882 54.8453C18.9364 54.8453 17.026 55.4613 15.4298 56.5158C14.1411 55.8629 12.8936 55.1264 11.7009 54.3116C13.8384 50.0302 15.9137 47.0291 16.8949 45.703ZM119.918 64.9601C119.918 68.2104 117.274 70.8545 114.024 70.8545C110.773 70.8545 108.129 68.2104 108.129 64.9601C108.129 61.7101 110.773 59.0657 114.024 59.0657C117.274 59.0657 119.918 61.7098 119.918 64.9601ZM26.8826 64.9601C26.8826 68.2104 24.2385 70.8545 20.9882 70.8545C17.7379 70.8545 15.0939 68.2104 15.0939 64.9601C15.0939 61.7101 17.7379 59.0657 20.9882 59.0657C24.2383 59.0657 26.8826 61.7098 26.8826 64.9601ZM5.05081 79.0058C5.09537 79.0852 5.10776 79.1329 5.10776 79.1329L5.04316 79.1593C5.04553 79.1081 5.0479 79.0569 5.05081 79.0058ZM18.63 112.189C18.63 115.874 15.6323 118.871 11.9472 118.871C8.26208 118.871 5.26413 115.874 5.26413 112.189V97.7136C5.28048 97.7313 5.29789 97.7481 5.31424 97.7663C7.74365 100.42 11.0649 102.257 14.606 102.89C15.9417 103.129 17.2786 103.154 18.63 103.154V112.189ZM81.0916 104.244H53.9203V97.8444H81.0913V104.244H81.0916ZM123.065 118.871C119.38 118.871 116.382 115.874 116.382 112.189V103.154C118.398 103.154 120.375 103.03 122.314 102.43C124.037 101.897 125.652 101.099 127.122 100.053C128.057 99.387 128.923 98.6144 129.697 97.7669C129.714 97.7489 129.731 97.7321 129.747 97.7139V112.189H129.748C129.747 115.874 126.75 118.871 123.065 118.871ZM129.759 87.7858C129.112 94.1413 123.821 98.934 117.452 98.934H114.272H85.3118V95.7343C85.3118 94.5688 84.367 93.6242 83.2017 93.6242H51.8099C50.6446 93.6242 49.6998 94.5688 49.6998 95.7343V98.9342H20.7401H17.5594C11.1901 98.9342 5.89964 94.1413 5.25306 87.786C5.12991 86.5741 5.04843 85.379 5.00466 84.2027C6.27936 84.9136 7.96806 85.6577 10.2071 86.3668C11.4805 88.108 13.5376 89.2421 15.8552 89.2421C17.0568 89.2421 18.1883 88.9373 19.1772 88.4015C26.2226 89.5335 35.0548 90.1092 45.4583 90.1092H89.5536C99.9571 90.1092 108.789 89.5338 115.834 88.4015C116.823 88.9376 117.955 89.2421 119.156 89.2421C121.474 89.2421 123.531 88.108 124.805 86.3668C127.043 85.6577 128.731 84.9139 130.006 84.2029C129.961 85.3806 129.882 86.5746 129.759 87.7858ZM13.0808 82.2474C13.0808 80.7177 14.3255 79.4733 15.8552 79.4733C17.3849 79.4733 18.6295 80.718 18.6295 82.2474C18.6295 83.7773 17.3849 85.0217 15.8552 85.0217C14.3255 85.0217 13.0808 83.7773 13.0808 82.2474ZM116.382 82.2474C116.382 80.7177 117.626 79.4733 119.156 79.4733C120.686 79.4733 121.93 80.718 121.93 82.2474C121.93 83.7773 120.686 85.0217 119.156 85.0217C117.626 85.0217 116.382 83.7773 116.382 82.2474ZM129.974 79.1614L129.904 79.1326C129.904 79.1326 129.917 79.0812 129.966 78.9963C129.969 79.0511 129.971 79.1065 129.974 79.1614ZM126.099 81.4096C125.683 77.9468 122.729 75.2532 119.156 75.2532C115.299 75.2532 112.162 78.3909 112.162 82.2477C112.162 83.078 112.308 83.8746 112.575 84.614C106.206 85.4594 98.4867 85.889 89.5536 85.889H45.458C36.5249 85.889 28.8052 85.4594 22.437 84.614C22.7036 83.8746 22.8499 83.0778 22.8499 82.2477C22.8499 78.3909 19.712 75.2532 15.8552 75.2532C12.2821 75.2532 9.32819 77.9468 8.91261 81.4096C6.05311 80.208 5.19162 79.1864 5.05107 78.9984C5.5041 70.5958 7.72335 63.4051 9.91597 58.1924C10.715 58.7163 11.534 59.2094 12.3707 59.6709C11.4219 61.2112 10.8734 63.0225 10.8734 64.9601C10.8734 70.5372 15.4108 75.0746 20.988 75.0746C26.5651 75.0746 31.1025 70.5372 31.1025 64.9601C31.1025 64.7441 31.0933 64.53 31.0798 64.3172H103.932C103.918 64.53 103.909 64.7441 103.909 64.9601C103.909 70.5372 108.446 75.0746 114.023 75.0746C119.601 75.0746 124.138 70.5372 124.138 64.9601C124.138 63.0225 123.589 61.2112 122.641 59.6712C123.473 59.2126 124.287 58.7219 125.082 58.2013C127.435 63.7867 129.532 70.8816 129.966 78.991C129.841 79.1606 128.993 80.1932 126.099 81.4096Z" fill="#FFD600"/>
<path d="M96.7835 73.1975H73.8969C73.0093 70.5162 70.4805 68.5754 67.5055 68.5754C64.5305 68.5754 62.0014 70.5162 61.1141 73.1975H38.2278C37.0625 73.1975 36.1177 74.142 36.1177 75.3076C36.1177 76.4731 37.0625 77.4176 38.2278 77.4176H61.1143C62.0017 80.0989 64.5308 82.0397 67.5058 82.0397C70.4808 82.0397 73.0096 80.0989 73.8972 77.4176H96.7838C97.949 77.4176 98.8939 76.4731 98.8939 75.3076C98.8939 74.142 97.949 73.1975 96.7835 73.1975ZM67.506 77.8195C66.1208 77.8195 64.9941 76.6927 64.9941 75.3076C64.9941 73.9224 66.1208 72.7956 67.506 72.7956C68.8912 72.7956 70.018 73.9224 70.018 75.3076C70.0177 76.6927 68.8907 77.8195 67.506 77.8195Z" fill="#FFD600"/>
<path d="M111.635 34.737C110.941 31.2742 110.017 28.0452 108.891 25.1396C106.914 20.0389 104.369 16.0455 101.325 13.2699C97.7632 10.0209 93.5277 8.44165 88.377 8.44165H83.1793C82.014 8.44165 81.0692 9.3862 81.0692 10.5517C81.0692 11.7173 82.014 12.6618 83.1793 12.6618H88.377C92.4273 12.6618 95.7327 13.8806 98.4818 16.3878C101.039 18.7202 103.217 22.1778 104.956 26.6648C105.719 28.6322 106.382 30.7692 106.937 33.0422H48.6506C47.4853 33.0422 46.5405 33.9868 46.5405 35.1523C46.5405 36.3179 47.4853 37.2624 48.6506 37.2624H109.566C110.199 37.2624 110.798 36.9787 111.198 36.4895C111.599 36.0006 111.76 35.3575 111.635 34.737Z" fill="#FFD600"/>
<path d="M74.7385 8.44165H46.6352C41.542 8.44139 37.3463 9.98453 33.8091 13.1594C30.7822 15.8757 28.2407 19.7916 26.2553 24.7978C25.0661 27.7974 24.097 31.1415 23.3758 34.737C23.2513 35.3572 23.4114 36.0004 23.8122 36.4895C24.2127 36.9787 24.8121 37.2624 25.4445 37.2624H40.2106C41.3758 37.2624 42.3206 36.3179 42.3206 35.1523C42.3206 33.9868 41.3758 33.0422 40.2106 33.0422H28.074C28.6584 30.6511 29.3632 28.4094 30.1786 26.3536C31.9208 21.9597 34.0907 18.577 36.6277 16.3008C39.3559 13.8524 42.6294 12.6621 46.6355 12.6621H74.7387C75.904 12.6621 76.8488 11.7175 76.8488 10.552C76.8485 9.3862 75.9037 8.44165 74.7385 8.44165Z" fill="#FFD600"/>
</svg>
