<svg width="149" height="143" viewBox="0 0 149 143" fill="none" xmlns="http://www.w3.org/2000/svg">
<path d="M28.5322 43.9113C25.277 47.1667 25.277 52.4638 28.5322 55.7195C30.0377 57.2247 32.5271 58.5769 35.0293 59.2489C36.1339 59.5457 37.1751 59.692 38.1337 59.692C40.0055 59.692 41.5614 59.1326 42.6578 58.0367C46.3203 54.374 43.2388 46.8097 40.3407 43.9113C37.085 40.6559 31.7882 40.6559 28.5322 43.9113ZM39.5718 54.9506C38.4657 56.057 33.6338 54.6495 31.618 52.6334C30.0639 51.0796 30.0639 48.5509 31.618 46.9971C32.395 46.22 33.4156 45.8314 34.4364 45.8314C35.4573 45.8314 36.4778 46.22 37.2549 46.9971C39.2706 49.0129 40.6781 53.8445 39.5718 54.9506Z" fill="#FFD600"/>
<path d="M110.17 55.7193C113.426 52.4639 113.426 47.1668 110.17 43.9111C106.915 40.6559 101.618 40.6559 98.3619 43.9111C96.8567 45.4166 95.5045 47.9057 94.8325 50.4079C93.9568 53.6697 94.3874 56.3788 96.0447 58.0365C97.2396 59.231 98.8492 59.7081 100.577 59.7081C104.146 59.7081 108.217 57.6719 110.17 55.7193ZM99.1308 54.9507C98.0245 53.8446 99.4319 49.013 101.448 46.9972C102.225 46.2201 103.246 45.8314 104.266 45.8314C105.287 45.8314 106.308 46.2201 107.085 46.9972C108.639 48.551 108.639 51.0797 107.085 52.6335C105.069 54.6496 100.237 56.0579 99.1308 54.9507Z" fill="#FFD600"/>
<path d="M36.9602 10.1118L29.8271 28.2533C29.563 28.9251 29.6482 29.6838 30.0544 30.2802C30.4608 30.8769 31.136 31.2335 31.8575 31.2335H106.845C107.567 31.2335 108.242 30.8766 108.648 30.2802C109.055 29.6838 109.14 28.9251 108.876 28.2533L101.743 10.1118C101.065 8.38718 99.4292 7.27295 97.576 7.27295H41.1268C39.2736 7.27295 37.6381 8.38718 36.9602 10.1118ZM97.6825 11.7086L103.643 26.8697H35.0602L41.0215 11.7083C41.0404 11.6595 41.0742 11.6368 41.1268 11.6368H97.5763C97.6293 11.6368 97.663 11.6598 97.6825 11.7086Z" fill="#FFD600"/>
<path d="M85.6336 49.8572C85.6336 48.6519 84.657 47.6753 83.4517 47.6753H55.1844C53.9791 47.6753 53.0024 48.6519 53.0024 49.8572C53.0024 51.0625 53.9791 52.0391 55.1844 52.0391H83.4517C84.6567 52.0391 85.6336 51.0625 85.6336 49.8572Z" fill="#FFD600"/>
<path d="M62.3011 56.2153C61.0958 56.2153 60.1191 57.192 60.1191 58.3972C60.1191 59.6025 61.0958 60.5792 62.3011 60.5792H76.3348C77.5401 60.5792 78.5167 59.6025 78.5167 58.3972C78.5167 57.192 77.5401 56.2153 76.3348 56.2153H62.3011Z" fill="#FFD600"/>
<path d="M78.5172 66.9378C78.5172 65.7325 77.5406 64.7559 76.3353 64.7559H62.3015C61.0963 64.7559 60.1196 65.7325 60.1196 66.9378C60.1196 68.1431 61.0963 69.1197 62.3015 69.1197H76.3353C77.5403 69.1197 78.5172 68.1428 78.5172 66.9378Z" fill="#FFD600"/>
<path d="M138.878 61.0737H122.126L126.568 43.9981C127.361 40.9513 126.263 37.9056 124.003 36.0143L124.947 34.5231C125.858 34.9184 126.862 35.1389 127.916 35.1389H131.219C135.346 35.1389 138.703 31.7817 138.703 27.655C138.703 23.5283 135.346 20.171 131.219 20.171H127.916C123.79 20.171 120.432 23.5283 120.432 27.655C120.432 29.1262 120.861 30.4982 121.597 31.6566L119.946 34.2638C119.645 34.2278 119.34 34.2089 119.032 34.2074L108.512 7.4505C106.732 2.92434 102.44 0 97.5762 0H56.9542C55.749 0 54.7723 0.976623 54.7723 2.18191C54.7723 3.3872 55.749 4.36382 56.9542 4.36382H97.5765C100.634 4.36382 103.332 6.20215 104.451 9.04736L114.343 34.2065H24.3606L34.2528 9.04736C35.3717 6.20244 38.07 4.36382 41.1273 4.36382H48.2307C49.436 4.36382 50.4126 3.3872 50.4126 2.18191C50.4126 0.976623 49.436 0 48.2307 0H41.1273C36.2636 0 31.9714 2.92463 30.1918 7.4505L19.6715 34.2074C19.3634 34.2089 19.0585 34.2281 18.7577 34.2638L17.1065 31.6566C17.8425 30.4984 18.271 29.1262 18.271 27.655C18.271 23.5283 14.9138 20.171 10.7871 20.171H7.48395C3.35723 20.171 0 23.5283 0 27.655C0 31.7817 3.35723 35.1389 7.48395 35.1389H10.7871C11.8417 35.1389 12.8456 34.9184 13.7565 34.5231L14.7011 36.0149C12.3819 37.9542 11.3602 41.0219 12.1346 43.9981L16.7347 61.6718C17.265 63.7147 18.0328 65.6575 19.0004 67.476V84.0667C19.0004 90.5417 24.2678 95.8091 30.7425 95.8091C37.2176 95.8091 42.485 90.5417 42.485 84.0667V82.0768C47.0932 82.7712 51.7276 83.2925 56.3139 83.6285C56.3686 83.6326 56.4221 83.6347 56.476 83.6347C57.6085 83.6347 58.5657 82.7598 58.6497 81.6124C58.7382 80.4107 57.8352 79.3648 56.6334 79.2769C50.7556 78.8458 44.7961 78.1057 38.92 77.0767C30.2142 75.5505 23.1637 69.0732 20.958 60.5742L16.3579 42.8993C15.7866 40.7063 17.4422 38.5704 19.7064 38.5704H118.999C121.262 38.5704 122.915 40.7057 122.344 42.8996C120.782 48.8966 117.838 60.2588 117.605 61.074H90.309C84.7544 61.074 80.2355 65.5929 80.2355 71.1477V79.3994C75.2517 79.711 70.2185 79.8114 65.2496 79.6933C64.0487 79.6674 63.045 80.6181 63.0165 81.8228C62.988 83.0275 63.9416 84.0274 65.146 84.0559C66.536 84.0888 67.9301 84.1051 69.3274 84.1051C72.9607 84.1051 76.6095 83.9875 80.2352 83.7664V93.6409C80.2352 95.4877 81.7375 96.99 83.584 96.99H96.0183V115.461C96.0183 116.667 96.9949 117.643 98.2002 117.643C99.4055 117.643 100.382 116.667 100.382 115.461V71.1474C100.382 69.0286 99.7232 67.0617 98.6014 65.4375H138.878C142.026 65.4375 144.588 67.9991 144.588 71.1474V134.775L142.967 132.707C142.417 132.006 141.591 131.604 140.699 131.604C140.699 131.604 140.699 131.604 140.699 131.604C139.808 131.604 138.981 132.006 138.432 132.707L134.629 137.559L130.826 132.707C130.275 132.006 129.45 131.604 128.558 131.604C127.667 131.604 126.841 132.006 126.291 132.707L122.487 137.56L118.684 132.707C118.134 132.006 117.307 131.604 116.416 131.604C115.525 131.604 114.698 132.006 114.148 132.707L110.344 137.56L106.54 132.707C105.99 132.006 105.164 131.603 104.273 131.603C103.381 131.603 102.555 132.006 102.005 132.707L100.382 134.777V124.185C100.382 122.98 99.4058 122.003 98.2005 122.003C96.9952 122.003 96.0186 122.98 96.0186 124.185V139.071C96.0186 140.299 96.7988 141.393 97.9599 141.794C99.1201 142.194 100.41 141.815 101.167 140.848L104.273 136.888L108.077 141.74C108.627 142.441 109.453 142.844 110.344 142.844C111.236 142.844 112.062 142.441 112.612 141.74L116.416 136.888L120.219 141.74C120.769 142.441 121.596 142.844 122.487 142.844C123.379 142.844 124.205 142.441 124.755 141.74L128.558 136.888L132.362 141.741C132.912 142.442 133.738 142.844 134.629 142.844C135.52 142.844 136.346 142.442 136.897 141.74L140.699 136.888L143.803 140.848C144.56 141.814 145.848 142.194 147.01 141.794C148.171 141.393 148.951 140.298 148.951 139.07V71.1474C148.952 65.5926 144.433 61.0737 138.878 61.0737ZM127.916 24.5349H131.219C132.94 24.5349 134.34 25.9345 134.34 27.655C134.34 29.3755 132.94 30.7751 131.219 30.7751H127.916C126.196 30.7751 124.796 29.3755 124.796 27.655C124.796 25.9345 126.196 24.5349 127.916 24.5349ZM7.48395 30.7748C5.76373 30.7748 4.36382 29.3752 4.36382 27.6547C4.36382 25.9342 5.76373 24.5346 7.48395 24.5346H10.7871C12.5073 24.5346 13.9072 25.9342 13.9072 27.6547C13.9072 29.3752 12.5073 30.7748 10.7871 30.7748H7.48395ZM38.1215 81.3658V84.0664C38.1215 88.1349 34.8114 91.445 30.7428 91.445C26.6746 91.445 23.3645 88.1349 23.3645 84.0664V73.4882C27.2503 77.5256 32.3825 80.3493 38.1215 81.3658ZM96.0186 71.1474V92.6259H84.5993V71.1474C84.5993 67.9991 87.1606 65.4375 90.309 65.4375C93.4573 65.4375 96.0186 67.9988 96.0186 71.1474Z" fill="#FFD600"/>
<path d="M112.819 127.835C114.024 127.835 115.001 126.859 115.001 125.654V125.301C117.038 124.535 118.586 122.737 118.965 120.483C119.441 117.65 117.908 115.092 115.151 114.117C114.884 114.023 114.624 113.933 114.371 113.846C113.404 113.513 112.201 113.098 111.935 112.789C111.709 112.527 111.623 112.044 111.733 111.666C111.836 111.31 112.049 111.202 112.243 111.144C114.063 110.595 115.514 110.936 115.585 110.954C116.738 111.268 117.931 110.593 118.256 109.441C118.584 108.281 117.909 107.075 116.749 106.748C116.618 106.711 115.962 106.54 114.966 106.485C114.787 105.46 113.895 104.682 112.819 104.682C111.614 104.682 110.637 105.658 110.637 106.864V107.084C109.123 107.655 108.005 108.861 107.543 110.445C107.015 112.257 107.431 114.246 108.628 115.637C109.664 116.84 111.187 117.364 112.95 117.972C113.192 118.055 113.441 118.141 113.697 118.232C114.462 118.502 114.786 119.016 114.661 119.76C114.563 120.341 114.062 121.329 112.805 121.337C111.458 121.347 111.134 121.296 110.151 120.653C109.142 119.993 107.79 120.276 107.13 121.285C106.47 122.293 106.753 123.645 107.762 124.305C108.843 125.012 109.706 125.373 110.637 125.548V125.654C110.637 126.859 111.614 127.835 112.819 127.835Z" fill="#FFD600"/>
<path d="M133.218 71.4866H111.753C110.548 71.4866 109.571 72.4632 109.571 73.6685C109.571 74.8738 110.548 75.8504 111.753 75.8504H133.218C134.423 75.8504 135.4 74.8738 135.4 73.6685C135.4 72.4632 134.423 71.4866 133.218 71.4866Z" fill="#FFD600"/>
<path d="M104.115 86.1297C104.115 87.335 105.091 88.3116 106.297 88.3116H110.89C112.095 88.3116 113.072 87.335 113.072 86.1297C113.072 84.9244 112.095 83.9478 110.89 83.9478H106.297C105.091 83.9478 104.115 84.9244 104.115 86.1297Z" fill="#FFD600"/>
<path d="M138.674 83.9478H117.244C116.039 83.9478 115.062 84.9244 115.062 86.1297C115.062 87.335 116.039 88.3116 117.244 88.3116H138.674C139.88 88.3116 140.856 87.335 140.856 86.1297C140.856 84.9244 139.879 83.9478 138.674 83.9478Z" fill="#FFD600"/>
<path d="M106.297 98.3829H110.89C112.095 98.3829 113.072 97.4062 113.072 96.201C113.072 94.9957 112.095 94.019 110.89 94.019H106.297C105.091 94.019 104.115 94.9957 104.115 96.201C104.115 97.4062 105.091 98.3829 106.297 98.3829Z" fill="#FFD600"/>
<path d="M138.674 94.019H117.244C116.039 94.019 115.062 94.9957 115.062 96.201C115.062 97.4062 116.039 98.3829 117.244 98.3829H138.674C139.88 98.3829 140.856 97.4062 140.856 96.201C140.856 94.9957 139.879 94.019 138.674 94.019Z" fill="#FFD600"/>
<path d="M138.674 108.167H127.813C126.608 108.167 125.631 109.144 125.631 110.349C125.631 111.554 126.608 112.531 127.813 112.531H138.674C139.879 112.531 140.856 111.554 140.856 110.349C140.856 109.144 139.879 108.167 138.674 108.167Z" fill="#FFD600"/>
</svg>
