<svg width="154" height="123" viewBox="0 0 154 123" fill="none" xmlns="http://www.w3.org/2000/svg">
<path d="M97.4994 109.235C120.761 109.235 139.686 90.3105 139.686 67.0487C139.686 43.7869 120.761 24.8618 97.4994 24.8618C74.2376 24.8618 55.3125 43.7866 55.3125 67.0487C55.3125 90.3108 74.2376 109.235 97.4994 109.235ZM66.0887 64.7884H59.9021C60.4189 56.1017 63.8923 48.199 69.3286 42.0738L73.6907 46.4359C74.1318 46.8773 74.7104 47.0979 75.2886 47.0979C75.8669 47.0979 76.4454 46.8773 76.8866 46.4359C77.7692 45.5533 77.7692 44.1223 76.8866 43.24L72.5245 38.8779C78.6497 33.4416 86.5524 29.9682 95.2391 29.4514V35.638C95.2391 36.8861 96.2507 37.898 97.4991 37.898C98.7475 37.898 99.7591 36.8861 99.7591 35.638V29.4514C108.446 29.9682 116.349 33.4416 122.473 38.8779L118.111 43.24C117.229 44.1226 117.229 45.5536 118.111 46.4359C118.553 46.877 119.131 47.0979 119.71 47.0979C120.288 47.0979 120.866 46.8773 121.308 46.4359L125.67 42.0738C131.106 48.199 134.579 56.1014 135.096 64.7881H128.909C127.661 64.7881 126.649 65.8 126.649 67.0481C126.649 68.2962 127.661 69.3081 128.909 69.3081H135.096C134.579 77.9949 131.106 85.8976 125.669 92.0224L121.308 87.6606C120.425 86.778 118.994 86.778 118.111 87.6606C117.229 88.5432 117.229 89.9743 118.111 90.8566L122.473 95.2186C116.348 100.655 108.446 104.128 99.7591 104.645V98.4585C99.7591 97.2104 98.7475 96.1985 97.4991 96.1985C96.2507 96.1985 95.2391 97.2104 95.2391 98.4585V104.645C86.5521 104.128 78.6497 100.655 72.5245 95.2186L76.8866 90.8568C77.7692 89.9743 77.7692 88.5432 76.8866 87.6609C76.0037 86.778 74.573 86.7783 73.6907 87.6609L69.3286 92.0227C63.8923 85.8976 60.4189 77.9952 59.9021 69.3081H66.0887C67.3368 69.3081 68.3487 68.2962 68.3487 67.0481C68.3487 65.8003 67.3368 64.7884 66.0887 64.7884Z" fill="#FFD600"/>
<path d="M124.902 110.546C116.711 115.718 107.235 118.451 97.4992 118.451C69.1555 118.451 46.0961 95.3922 46.0961 67.0484C46.0961 55.5734 49.7935 44.7201 56.7879 35.6615C57.5506 34.6737 57.3683 33.2545 56.3802 32.4915C55.3925 31.7288 53.9732 31.9111 53.2102 32.8992C45.5989 42.756 41.5762 54.5646 41.5762 67.0484C41.5762 97.8845 66.6631 122.971 97.4992 122.971C108.09 122.971 118.401 119.996 127.315 114.368C128.371 113.702 128.686 112.306 128.019 111.251C127.353 110.195 125.957 109.88 124.902 110.546Z" fill="#FFD600"/>
<path d="M111.129 12.8084V4.24153C111.129 1.9026 109.226 0 106.887 0H88.1104C85.7714 0 83.8688 1.9026 83.8688 4.24153V12.806C74.8816 15.0575 66.5435 19.5244 59.6036 25.9223C58.686 26.7684 58.6279 28.1979 59.4737 29.1158C60.3198 30.0333 61.7496 30.0918 62.6672 29.2456C72.1805 20.4754 84.5507 15.6454 97.4989 15.6454C125.843 15.6454 148.902 38.7047 148.902 67.0485C148.902 81.597 142.696 95.5275 131.874 105.267C130.946 106.102 130.871 107.531 131.706 108.459C132.152 108.955 132.768 109.207 133.386 109.207C133.925 109.207 134.466 109.015 134.898 108.627C146.67 98.031 153.422 82.8762 153.422 67.0482C153.422 40.9126 135.399 18.9097 111.129 12.8084ZM88.3891 11.867V4.51996H106.609V11.8715C103.644 11.3834 100.601 11.1254 97.4995 11.1254C94.4238 11.1254 91.3786 11.3761 88.3891 11.867Z" fill="#FFD600"/>
<path d="M97.4995 68.6314C98.3475 68.6314 99.0851 68.164 99.4717 67.4734L107.268 59.6774C108.15 58.7948 108.15 57.3637 107.268 56.4811C106.385 55.5985 104.954 55.5985 104.071 56.4811L99.7592 60.7929V49.7871C99.7592 48.539 98.7477 47.5271 97.4992 47.5271C96.2508 47.5271 95.2393 48.539 95.2393 49.7871V66.3708C95.2396 67.6195 96.2511 68.6314 97.4995 68.6314Z" fill="#FFD600"/>
<path d="M33.3498 67.5586C33.3498 66.3105 32.3379 65.2986 31.0898 65.2986H2.25998C1.01187 65.2986 0 66.3105 0 67.5586C0 68.8067 1.01187 69.8185 2.25998 69.8185H31.0898C32.3379 69.8185 33.3498 68.807 33.3498 67.5586Z" fill="#FFD600"/>
<path d="M11.2741 56.6572H34.1036C35.3517 56.6572 36.3635 55.6453 36.3635 54.3972C36.3635 53.1491 35.3517 52.1372 34.1036 52.1372H11.2741C10.026 52.1372 9.01416 53.1491 9.01416 54.3972C9.01416 55.6453 10.0257 56.6572 11.2741 56.6572Z" fill="#FFD600"/>
<path d="M37.1164 38.9753H18.3938C17.1457 38.9753 16.1338 39.9872 16.1338 41.2353C16.1338 42.4834 17.1457 43.4953 18.3938 43.4953H37.1164C38.3645 43.4953 39.3763 42.4834 39.3763 41.2353C39.3763 39.9869 38.3645 38.9753 37.1164 38.9753Z" fill="#FFD600"/>
<path d="M36.3632 79.7004C36.3632 78.4523 35.3514 77.4404 34.1033 77.4404H11.2741C10.026 77.4404 9.01416 78.4523 9.01416 79.7004C9.01416 80.9485 10.026 81.9604 11.2741 81.9604H34.1036C35.3514 81.9604 36.3632 80.9485 36.3632 79.7004Z" fill="#FFD600"/>
<path d="M37.1164 90.6021H18.3938C17.1457 90.6021 16.1338 91.6139 16.1338 92.862C16.1338 94.1101 17.1457 95.122 18.3938 95.122H37.1164C38.3645 95.122 39.3763 94.1101 39.3763 92.862C39.3763 91.6139 38.3645 90.6021 37.1164 90.6021Z" fill="#FFD600"/>
</svg>
