<svg width="62" height="68" viewBox="0 0 62 68" fill="none" xmlns="http://www.w3.org/2000/svg">
<path d="M34.3417 19.832C36.8837 17.6417 39.7357 13.5268 39.7744 13.913C41.3509 12.9701 41.2576 12.4012 41.5585 11.0034C42.2566 6.77269 41.9812 8.00271 39.5542 5.70579C38.0318 2.9172 34.6831 3.1662 32.1889 2.67627C31.4237 2.28721 34.4231 1.84108 33.0327 1.40821C32.2214 1.15863 27.3838 2.13273 26.4548 1.76788C25.4831 1.38631 28.6764 0.294043 27.6495 0.031785C25.4307 -0.227591 23.5948 1.35172 21.4727 1.16901C18.2731 2.45609 13.8776 4.77203 12.1464 7.62114C11.9581 8.08686 11.2879 7.99925 11.2333 7.49952C10.9898 6.08505 10.4049 4.52649 10.0527 3.01577C9.60386 1.08831 7.78672 -0.184938 5.84271 0.0219863C3.33945 0.288279 0.601798 1.26353 0.644468 1.34769C-0.816525 3.42904 0.547182 5.66025 1.38919 7.80328C7.04598 20.4712 10.5249 34.6084 16.1624 47.0999C17.7511 50.6079 19.1272 54.2107 20.2831 57.8883C22.771 65.8425 30.8366 71.8756 36.5901 64.9986C37.5573 63.8401 38.2775 62.4913 38.7776 61.0602C45.5438 41.7124 54.2426 21.722 61.8287 3.16678C62.4118 1.74021 61.4401 0.137265 59.9182 0.0542643C59.0278 0.00411819 58.0783 0.0271739 57.2648 0.0542643C56.7054 0.0737348 56.1616 0.245986 55.6909 0.552803C55.2203 0.85962 54.8402 1.2896 54.5908 1.79727C51.8105 7.41998 49.8039 14.305 49.59 20.2631C46.5821 23.7249 44.9891 38.2091 40.6386 36.9018C40.8286 36.0119 42.6412 34.9998 41.5022 34.3035C40.0725 33.904 39.2032 36.5641 37.4236 36.4269C34.4919 36.1116 40.0975 34.2216 40.8707 32.825C43.0007 28.1499 37.7763 33.9202 36.1532 34.0354C17.6063 42.4462 6.69666 11.3936 27.0726 8.50129C29.3768 7.43554 39.1269 7.03206 34.1142 11.9677C32.0575 16.3022 32.6765 17.3201 27.6854 17.6163C22.8495 18.2354 22.8199 26.487 27.674 26.9585C30.848 27.6853 33.7996 24.9867 33.5538 22.4217C33.9418 21.122 33.1999 20.4787 34.3417 19.832ZM36.9525 44.818C34.7371 49.1582 31.3156 60.8832 28.1342 55.5187C16.7063 36.25 26.1402 45.9466 36.6527 42.7764C38.4397 42.2375 37.2074 44.3246 36.9525 44.818Z" fill="#535353"/>
</svg>
