<svg width="225" height="75" viewBox="0 0 225 75" fill="none" xmlns="http://www.w3.org/2000/svg">
<path d="M10.0015 36.5888C10.6235 36.7131 11.2454 36.7753 11.8674 36.7753C14.6041 36.7753 15.9725 35.5314 15.9725 33.0435C15.9725 32.0234 15.6118 31.2148 14.8903 30.6177C14.1936 29.9957 13.186 29.6847 11.8674 29.6847C11.2454 29.6847 10.6235 29.7469 10.0015 29.8713V36.5888ZM10.0015 24.6467C10.922 24.5223 11.7928 24.4601 12.6138 24.4601C15.8979 24.4601 18.4231 25.2189 20.1896 26.7366C21.9809 28.2542 22.8765 30.3565 22.8765 33.0435C22.8765 36.3275 21.9684 38.7035 20.1522 40.1714C18.3609 41.6393 15.4127 42.3732 11.3076 42.3732C8.27237 42.3732 5.41125 42.1866 2.72428 41.8134V14.7572H21.7569V20.355H10.0015V24.6467ZM35.3218 31.1775H40.2479L37.8222 21.1014H37.7475L35.3218 31.1775ZM33.9783 36.7753L32.7468 42H24.9845L33.941 14.7572H41.778L50.7345 42H42.8229L41.5541 36.7753H33.9783ZM75.5266 27.0724H75.4519L71.7947 36.4022H65.0772L61.42 27.0724H61.3454V42H54.3294V14.7572H62.0917L68.3986 30.8043H68.4733L74.7802 14.7572H82.6918V42H75.5266V27.0724ZM88.1497 14.7572H110.914V42H103.45V20.7282H95.6135V42H88.1497V14.7572ZM133.524 25.2065V30.8043H123.821V36.029H134.271V42H116.358V14.7572H134.271V20.7282H123.821V25.2065H133.524ZM146.631 33.4913V42H139.354V14.9438C141.916 14.5706 144.653 14.384 147.564 14.384C156.023 14.384 160.253 17.4317 160.253 23.5271C160.253 26.8361 159.295 29.3489 157.379 31.0655C155.488 32.7573 152.714 33.6032 149.057 33.6032C148.087 33.6032 147.278 33.5659 146.631 33.4913ZM146.631 28.08C147.104 28.1547 147.664 28.192 148.31 28.192C149.928 28.192 151.172 27.8188 152.042 27.0724C152.913 26.326 153.349 25.2687 153.349 23.9003C153.349 21.288 151.669 19.9818 148.31 19.9818C147.763 19.9818 147.203 20.044 146.631 20.1684V28.08ZM164.218 42V34.163H172.428V42H164.218ZM190.07 25.9529H190.443C192.483 25.9529 194.138 26.637 195.407 28.0054C196.7 29.3489 197.347 31.1526 197.347 33.4166C197.347 36.3275 196.452 38.5542 194.66 40.0967C192.869 41.6144 190.282 42.3732 186.898 42.3732C183.564 42.3732 180.454 41.6268 177.568 40.1341L179.397 34.5362C182.009 35.8299 184.261 36.4768 186.152 36.4768C187.42 36.4768 188.391 36.228 189.062 35.7304C189.734 35.208 190.07 34.4989 190.07 33.6032C190.07 32.8569 189.896 32.2971 189.548 31.9239C189.199 31.5507 188.54 31.277 187.57 31.1029C186.624 30.9038 185.219 30.8043 183.353 30.8043H181.86V25.9529L188.204 20.8028V20.7282H178.128V14.7572H196.974V20.7282L190.07 25.8782V25.9529ZM210.415 24.6467H210.489C211.559 24.2735 212.592 24.0869 213.587 24.0869C216.473 24.0869 218.687 24.8333 220.23 26.326C221.772 27.7939 222.543 29.9087 222.543 32.6703C222.543 39.1389 218.563 42.3732 210.601 42.3732C207.74 42.3732 205.003 41.8756 202.391 40.8804L203.884 34.984C206.422 35.9792 208.536 36.4768 210.228 36.4768C213.587 36.4768 215.266 35.208 215.266 32.6703C215.266 30.6799 214.209 29.6847 212.094 29.6847C211.298 29.6847 210.427 30.1201 209.482 30.9909H203.138L203.884 14.7572H221.237V20.7282H210.601L210.415 24.6467Z" fill="#535353"/>
<path d="M2.04366 69.3336C2.6064 69.4521 3.21358 69.5113 3.86518 69.5113C6.19514 69.5113 7.36013 68.5536 7.36013 66.6383C7.36013 64.8909 6.13097 64.0171 3.67266 64.0171C3.10991 64.0171 2.56691 64.0665 2.04366 64.1652V69.3336ZM2.04366 63.5432C2.58666 63.4445 3.14447 63.3951 3.71709 63.3951C5.16838 63.3951 6.25438 63.6765 6.97509 64.2393C7.70567 64.802 8.07096 65.6017 8.07096 66.6383C8.07096 68.9782 6.6641 70.1481 3.85037 70.1481C2.96182 70.1481 2.11277 70.0642 1.3032 69.8963V59.1894H7.37494V59.8261H2.04366V63.5432ZM12.6732 62.1512C13.7 62.1512 14.4306 62.3733 14.865 62.8176C15.2994 63.252 15.5166 64.0023 15.5166 65.0686V67.9267C15.5166 68.6178 15.5906 69.3089 15.7387 70H15.0575C14.9687 69.5459 14.9144 69.0374 14.8946 68.4747H14.865C14.5984 68.988 14.2084 69.3978 13.6951 69.7038C13.1916 70 12.614 70.1481 11.9624 70.1481C11.2318 70.1481 10.6493 69.9506 10.2149 69.5557C9.78053 69.1509 9.56333 68.6079 9.56333 67.9267C9.56333 67.0579 9.94343 66.3816 10.7036 65.8979C11.4737 65.4042 12.5646 65.1574 13.9764 65.1574H14.8206V65.0834C14.8206 64.2047 14.6626 63.5975 14.3467 63.2619C14.0406 62.9163 13.4828 62.7435 12.6732 62.7435C11.7156 62.7435 10.8517 62.9706 10.0816 63.4248L9.90394 62.862C10.7332 62.3881 11.6563 62.1512 12.6732 62.1512ZM10.2445 67.8971C10.2445 68.4105 10.4074 68.8202 10.7332 69.1263C11.0689 69.4323 11.5181 69.5853 12.0809 69.5853C12.8213 69.5853 13.4631 69.3138 14.0061 68.7708C14.5491 68.218 14.8206 67.5318 14.8206 66.7124V65.7202H13.9764C12.7818 65.7202 11.8587 65.9127 11.2071 66.2977C10.5654 66.6828 10.2445 67.2159 10.2445 67.8971ZM25.5881 63.1878L22.4485 67.5417H21.7673L18.6278 63.1878H18.5982V70H17.9021V62.2993H18.7907L22.0931 66.9938H22.1227L25.4252 62.2993H26.3137V70H25.6177V63.1878H25.5881ZM28.6185 62.2993H34.9124V70H34.2163V62.9064H29.3145V70H28.6185V62.2993ZM37.4159 65.809H42.7324C42.7126 64.8119 42.4806 64.0517 42.0363 63.5284C41.6019 62.9953 40.9849 62.7287 40.1852 62.7287C39.3361 62.7287 38.6697 63.0002 38.186 63.5432C37.7022 64.0764 37.4455 64.8316 37.4159 65.809ZM37.4011 66.4014C37.411 67.3887 37.6825 68.1637 38.2156 68.7264C38.7586 69.2892 39.4793 69.5705 40.3777 69.5705C41.1972 69.5705 41.9722 69.3632 42.7028 68.9486L42.9249 69.4965C42.1252 69.9309 41.2613 70.1481 40.3333 70.1481C39.2275 70.1481 38.3439 69.7927 37.6825 69.0818C37.0309 68.3611 36.7051 67.3837 36.7051 66.1496C36.7051 64.9057 37.0161 63.9283 37.638 63.2174C38.26 62.5066 39.1091 62.1512 40.1852 62.1512C41.212 62.1512 42.0067 62.4918 42.5695 63.173C43.1322 63.8542 43.4136 64.8217 43.4136 66.0756V66.4014H37.4011ZM48.6404 70.1481C47.3866 70.1481 46.5079 69.615 46.0044 68.5487H45.9748V73.258H45.2787V62.2993H45.9451L45.9599 63.795H45.9896C46.4931 62.6991 47.3767 62.1512 48.6404 62.1512C49.6079 62.1512 50.3681 62.5017 50.921 63.2026C51.4739 63.9036 51.7503 64.8859 51.7503 66.1496C51.7503 67.4035 51.4689 68.3858 50.9062 69.0966C50.3434 69.7976 49.5882 70.1481 48.6404 70.1481ZM50.3731 68.6672C50.8371 68.0649 51.0691 67.2258 51.0691 66.1496C51.0691 65.0735 50.8371 64.2393 50.3731 63.6469C49.9189 63.0447 49.2969 62.7435 48.5071 62.7435C47.7469 62.7435 47.1348 63.0397 46.6708 63.6321C46.2068 64.2146 45.9748 65.0143 45.9748 66.0312V66.2681C45.9748 67.3047 46.2117 68.1143 46.6856 68.6968C47.1595 69.2694 47.7667 69.5557 48.5071 69.5557C49.2969 69.5557 49.9189 69.2595 50.3731 68.6672ZM56.363 62.1512C57.3898 62.1512 58.1203 62.3733 58.5547 62.8176C58.9891 63.252 59.2063 64.0023 59.2063 65.0686V67.9267C59.2063 68.6178 59.2804 69.3089 59.4285 70H58.7473C58.6584 69.5459 58.6041 69.0374 58.5844 68.4747H58.5547C58.2882 68.988 57.8982 69.3978 57.3848 69.7038C56.8813 70 56.3038 70.1481 55.6522 70.1481C54.9216 70.1481 54.3391 69.9506 53.9047 69.5557C53.4703 69.1509 53.2531 68.6079 53.2531 67.9267C53.2531 67.0579 53.6332 66.3816 54.3934 65.8979C55.1635 65.4042 56.2544 65.1574 57.6662 65.1574H58.5103V65.0834C58.5103 64.2047 58.3524 63.5975 58.0364 63.2619C57.7304 62.9163 57.1726 62.7435 56.363 62.7435C55.4053 62.7435 54.5415 62.9706 53.7714 63.4248L53.5937 62.862C54.423 62.3881 55.3461 62.1512 56.363 62.1512ZM53.9343 67.8971C53.9343 68.4105 54.0972 68.8202 54.423 69.1263C54.7587 69.4323 55.2079 69.5853 55.7706 69.5853C56.5111 69.5853 57.1528 69.3138 57.6958 68.7708C58.2388 68.218 58.5103 67.5318 58.5103 66.7124V65.7202H57.6662C56.4716 65.7202 55.5485 65.9127 54.8969 66.2977C54.2552 66.6828 53.9343 67.2159 53.9343 67.8971ZM66.4967 69.4521C66.9903 69.531 67.4741 69.5705 67.948 69.5705C69.8337 69.5705 70.7765 68.9634 70.7765 67.749C70.7765 66.6433 69.7646 66.0904 67.7407 66.0904H66.4967V69.4521ZM66.4967 65.5573H67.7407C68.5601 65.5573 69.1969 65.4289 69.651 65.1722C70.1052 64.9057 70.3323 64.5404 70.3323 64.0764C70.3323 63.1779 69.5029 62.7287 67.8443 62.7287C67.4001 62.7287 66.9508 62.7682 66.4967 62.8472V65.5573ZM71.4726 67.7786C71.4726 68.45 71.206 69.0078 70.6729 69.4521C70.1397 69.8865 69.2216 70.1037 67.9184 70.1037C67.1483 70.1037 66.4375 70.0444 65.7859 69.926V62.3733C66.4078 62.2548 67.0792 62.1956 67.7999 62.1956C68.9748 62.1956 69.8041 62.3684 70.2878 62.7139C70.7716 63.0595 71.0135 63.4939 71.0135 64.0171C71.0135 64.9254 70.4409 65.5128 69.2956 65.7794V65.7942C70.7469 66.0312 71.4726 66.6926 71.4726 67.7786ZM83.8229 69.3928H85.0521V71.7771H84.4153V70H77.529V62.2993H78.2251V69.3928H83.1269V62.2993H83.8229V69.3928ZM87.4811 69.4521C87.9747 69.531 88.4585 69.5705 88.9324 69.5705C90.8181 69.5705 91.7609 68.9634 91.7609 67.749C91.7609 66.6433 90.749 66.0904 88.7251 66.0904H87.4811V69.4521ZM87.4811 65.5573H88.7251C89.5445 65.5573 90.1813 65.4289 90.6354 65.1722C91.0896 64.9057 91.3166 64.5404 91.3166 64.0764C91.3166 63.1779 90.4873 62.7287 88.8287 62.7287C88.3844 62.7287 87.9352 62.7682 87.4811 62.8472V65.5573ZM92.4569 67.7786C92.4569 68.45 92.1904 69.0078 91.6573 69.4521C91.1241 69.8865 90.206 70.1037 88.9028 70.1037C88.1327 70.1037 87.4219 70.0444 86.7703 69.926V62.3733C87.3922 62.2548 88.0636 62.1956 88.7843 62.1956C89.9591 62.1956 90.7885 62.3684 91.2722 62.7139C91.756 63.0595 91.9979 63.4939 91.9979 64.0171C91.9979 64.9254 91.4252 65.5128 90.28 65.7794V65.7942C91.7313 66.0312 92.4569 66.6926 92.4569 67.7786ZM94.5119 65.809H99.8284C99.8087 64.8119 99.5767 64.0517 99.1324 63.5284C98.698 62.9953 98.0809 62.7287 97.2812 62.7287C96.4322 62.7287 95.7658 63.0002 95.282 63.5432C94.7983 64.0764 94.5416 64.8316 94.5119 65.809ZM94.4971 66.4014C94.507 67.3887 94.7785 68.1637 95.3116 68.7264C95.8546 69.2892 96.5753 69.5705 97.4738 69.5705C98.2932 69.5705 99.0682 69.3632 99.7988 68.9486L100.021 69.4965C99.2212 69.9309 98.3574 70.1481 97.4293 70.1481C96.3236 70.1481 95.44 69.7927 94.7785 69.0818C94.1269 68.3611 93.8011 67.3837 93.8011 66.1496C93.8011 64.9057 94.1121 63.9283 94.7341 63.2174C95.3561 62.5066 96.2051 62.1512 97.2812 62.1512C98.308 62.1512 99.1028 62.4918 99.6655 63.173C100.228 63.8542 100.51 64.8217 100.51 66.0756V66.4014H94.4971ZM108.565 62.8916H105.618V70H104.878V62.8916H101.93V62.2993H108.565V62.8916ZM115.365 65.6461L119.615 62.2993H120.577L115.853 65.9867L120.696 70H119.748L115.365 66.3422H115.35V70H114.624V62.2993H115.35V65.6461H115.365ZM128.354 62.2993H129.109L126.029 69.9852C125.516 71.2884 124.968 72.1819 124.385 72.6656C123.803 73.1593 123.033 73.4061 122.075 73.4061L122.045 72.7989C122.835 72.7989 123.467 72.6015 123.941 72.2066C124.425 71.8116 124.884 71.0761 125.318 70L122.09 62.2993H122.86L125.659 69.1559H125.688L128.354 62.2993ZM133.117 62.7287C132.268 62.7287 131.448 62.8966 130.659 63.2322L130.466 62.6991C131.374 62.3338 132.273 62.1512 133.161 62.1512C134.188 62.1512 134.993 62.3239 135.575 62.6695C136.158 63.0052 136.449 63.4593 136.449 64.0319C136.449 64.4268 136.281 64.7872 135.946 65.113C135.61 65.4388 135.106 65.6708 134.435 65.809V65.8386C135.195 65.9867 135.743 66.2582 136.079 66.6531C136.414 67.0382 136.582 67.4627 136.582 67.9267C136.582 68.6178 136.286 69.1608 135.694 69.5557C135.101 69.9506 134.257 70.1481 133.161 70.1481C132.214 70.1481 131.286 69.9704 130.377 69.615L130.57 69.0522C131.458 69.3879 132.312 69.5557 133.132 69.5557C134.02 69.5557 134.697 69.4126 135.161 69.1263C135.635 68.8301 135.871 68.4105 135.871 67.8675C135.871 66.7025 134.721 66.12 132.421 66.12H131.725V65.5425H132.421C133.487 65.5425 134.302 65.419 134.864 65.1722C135.437 64.9155 135.723 64.5601 135.723 64.106C135.723 63.6814 135.496 63.3458 135.042 63.099C134.598 62.8521 133.956 62.7287 133.117 62.7287ZM143.567 63.6617C143.054 63.0496 142.358 62.7435 141.479 62.7435C140.6 62.7435 139.904 63.0496 139.391 63.6617C138.877 64.2639 138.621 65.0932 138.621 66.1496C138.621 67.206 138.877 68.0403 139.391 68.6524C139.904 69.2546 140.6 69.5557 141.479 69.5557C142.358 69.5557 143.054 69.2546 143.567 68.6524C144.08 68.0403 144.337 67.206 144.337 66.1496C144.337 65.0932 144.08 64.2639 143.567 63.6617ZM144.071 69.067C143.429 69.7877 142.565 70.1481 141.479 70.1481C140.393 70.1481 139.529 69.7877 138.887 69.067C138.246 68.3463 137.925 67.3739 137.925 66.1496C137.925 64.9254 138.246 63.9529 138.887 63.2322C139.529 62.5115 140.393 62.1512 141.479 62.1512C142.565 62.1512 143.429 62.5115 144.071 63.2322C144.712 63.9529 145.033 64.9254 145.033 66.1496C145.033 67.3739 144.712 68.3463 144.071 69.067ZM147.542 69.4521C148.035 69.531 148.519 69.5705 148.993 69.5705C150.879 69.5705 151.822 68.9634 151.822 67.749C151.822 66.6433 150.81 66.0904 148.786 66.0904H147.542V69.4521ZM147.542 65.5573H148.786C149.605 65.5573 150.242 65.4289 150.696 65.1722C151.15 64.9057 151.377 64.5404 151.377 64.0764C151.377 63.1779 150.548 62.7287 148.889 62.7287C148.445 62.7287 147.996 62.7682 147.542 62.8472V65.5573ZM152.518 67.7786C152.518 68.45 152.251 69.0078 151.718 69.4521C151.185 69.8865 150.267 70.1037 148.964 70.1037C148.193 70.1037 147.483 70.0444 146.831 69.926V62.3733C147.453 62.2548 148.124 62.1956 148.845 62.1956C150.02 62.1956 150.849 62.3684 151.333 62.7139C151.817 63.0595 152.059 63.4939 152.059 64.0171C152.059 64.9254 151.486 65.5128 150.341 65.7794V65.7942C151.792 66.0312 152.518 66.6926 152.518 67.7786ZM157.12 62.1512C158.147 62.1512 158.877 62.3733 159.312 62.8176C159.746 63.252 159.963 64.0023 159.963 65.0686V67.9267C159.963 68.6178 160.037 69.3089 160.185 70H159.504C159.415 69.5459 159.361 69.0374 159.341 68.4747H159.312C159.045 68.988 158.655 69.3978 158.142 69.7038C157.638 70 157.061 70.1481 156.409 70.1481C155.678 70.1481 155.096 69.9506 154.662 69.5557C154.227 69.1509 154.01 68.6079 154.01 67.9267C154.01 67.0579 154.39 66.3816 155.15 65.8979C155.92 65.4042 157.011 65.1574 158.423 65.1574H159.267V65.0834C159.267 64.2047 159.109 63.5975 158.793 63.2619C158.487 62.9163 157.929 62.7435 157.12 62.7435C156.162 62.7435 155.298 62.9706 154.528 63.4248L154.351 62.862C155.18 62.3881 156.103 62.1512 157.12 62.1512ZM154.691 67.8971C154.691 68.4105 154.854 68.8202 155.18 69.1263C155.516 69.4323 155.965 69.5853 156.527 69.5853C157.268 69.5853 157.91 69.3138 158.453 68.7708C158.996 68.218 159.267 67.5318 159.267 66.7124V65.7202H158.423C157.228 65.7202 156.305 65.9127 155.654 66.2977C155.012 66.6828 154.691 67.2159 154.691 67.8971ZM167.624 69.4076H172.244V62.8916H168.542C168.542 65.4585 168.502 67.0382 168.424 67.6305C168.345 68.213 168.078 68.8054 167.624 69.4076ZM166.794 69.4076C167.318 68.7462 167.624 68.1439 167.713 67.6009C167.802 67.0579 167.846 65.4882 167.846 62.8916V62.2993H172.94V69.4076H173.977V71.7771H173.281V70H166.72V71.7771H166.024V69.4076H166.794ZM177.073 66.1941V62.2993H182.463V70H181.782V62.9064H177.754V66.2829C177.754 67.2998 177.665 68.0798 177.487 68.6228C177.32 69.1559 177.043 69.536 176.658 69.7631C176.273 69.9803 175.715 70.1086 174.985 70.1481L174.955 69.5409C175.389 69.5212 175.725 69.4718 175.962 69.3928C176.199 69.3138 176.406 69.1559 176.584 68.9189C176.772 68.682 176.9 68.3513 176.969 67.9267C177.038 67.4923 177.073 66.9148 177.073 66.1941ZM186.616 66.2681C186.013 66.1595 185.51 65.9472 185.105 65.6313C184.71 65.3154 184.513 64.8711 184.513 64.2985C184.513 62.8966 185.653 62.1956 187.934 62.1956C188.684 62.1956 189.415 62.2499 190.125 62.3585V70H189.415V66.4902H188.185C187.563 66.4902 187.134 66.5692 186.897 66.7272C186.66 66.8753 186.379 67.2653 186.053 67.8971L185.001 70H184.261L185.387 67.8083C185.653 67.2949 185.87 66.9345 186.038 66.7272C186.216 66.51 186.408 66.3619 186.616 66.2829V66.2681ZM189.415 65.9275V62.862C188.941 62.8028 188.452 62.7732 187.948 62.7732C187.435 62.7732 186.996 62.8176 186.63 62.9064C186.265 62.9953 185.994 63.094 185.816 63.2026C185.638 63.3112 185.5 63.4494 185.401 63.6173C185.303 63.7851 185.243 63.9184 185.224 64.0171C185.214 64.1158 185.209 64.2294 185.209 64.3577C185.209 65.4042 186.191 65.9275 188.156 65.9275H189.415ZM203.54 66.8901C203.54 67.8477 203.214 68.6326 202.562 69.2447C201.92 69.847 200.844 70.1481 199.334 70.1481C198.386 70.1481 197.532 70.0691 196.772 69.9111V59.2782C197.562 59.1202 198.366 59.0413 199.186 59.0413C201.723 59.0413 202.992 59.8953 202.992 61.6032C202.992 62.2252 202.794 62.7534 202.399 63.1878C202.004 63.6123 201.456 63.9085 200.755 64.0764V64.106C201.664 64.2541 202.355 64.5651 202.829 65.0389C203.303 65.5128 203.54 66.1299 203.54 66.8901ZM202.799 66.8457C202.799 66.0361 202.483 65.4339 201.851 65.0389C201.219 64.644 200.232 64.4466 198.89 64.4466H197.512V69.3484C198.115 69.457 198.722 69.5113 199.334 69.5113C201.644 69.5113 202.799 68.6228 202.799 66.8457ZM197.512 63.8246H198.89C200.005 63.8246 200.849 63.642 201.422 63.2767C201.995 62.9015 202.281 62.3684 202.281 61.6773C202.281 60.3445 201.249 59.6781 199.186 59.6781C198.633 59.6781 198.075 59.7324 197.512 59.841V63.8246ZM209.239 59.841H209.21L206.988 65.9571H211.461L209.239 59.841ZM211.683 66.5791H206.752L205.508 70H204.738L208.78 59.1894H209.669L213.727 70H212.927L211.683 66.5791ZM219.23 64.0912V64.1208C221.116 64.417 222.058 65.3401 222.058 66.8901C222.058 67.9563 221.723 68.7659 221.051 69.3188C220.39 69.8717 219.418 70.1481 218.134 70.1481C216.959 70.1481 215.863 69.8322 214.846 69.2003L215.098 68.5931C216.066 69.2052 217.068 69.5113 218.104 69.5113C220.247 69.5113 221.318 68.6277 221.318 66.8605C221.318 66.0509 220.992 65.4536 220.341 65.0686C219.689 64.6737 218.667 64.4762 217.275 64.4762H216.624V63.8246H217.275C218.489 63.8246 219.432 63.6271 220.104 63.2322C220.775 62.8275 221.111 62.2696 221.111 61.5588C221.111 60.9664 220.874 60.5074 220.4 60.1816C219.926 59.8459 219.26 59.6781 218.401 59.6781C217.403 59.6781 216.416 59.9644 215.439 60.537L215.202 59.9446C216.248 59.3424 217.339 59.0413 218.475 59.0413C219.511 59.0413 220.331 59.2585 220.933 59.6929C221.535 60.1273 221.836 60.7147 221.836 61.4551C221.836 62.8176 220.968 63.6963 219.23 64.0912Z" fill="#535353"/>
</svg>
